<?xml version="1.0" standalone="no"?>
<!DOCTYPE svg PUBLIC "-//W3C//DTD SVG 20010904//EN"
 "http://www.w3.org/TR/2001/REC-SVG-20010904/DTD/svg10.dtd">
<svg version="1.0" xmlns="http://www.w3.org/2000/svg"
 width="728.000000pt" height="333.000000pt" viewBox="0 0 728.000000 333.000000"
 preserveAspectRatio="xMidYMid meet">
<metadata>
Created by potrace 1.15, written by Peter Selinger 2001-2017
</metadata>
<g transform="translate(0.000000,333.000000) scale(0.100000,-0.100000)"
fill="#000000" stroke="none">
<path d="M896 3307 c4 -12 -1 -13 -35 -4 -30 8 -56 8 -99 -1 -32 -7 -67 -12
-78 -12 -34 0 -124 -30 -124 -41 0 -6 9 -13 20 -16 28 -7 25 -14 -18 -43 -51
-33 -26 -36 83 -11 107 26 103 26 76 -3 l-22 -23 25 4 c15 3 58 -10 111 -32
72 -31 94 -37 131 -31 l44 6 -16 -31 c-8 -17 -14 -32 -12 -33 2 -2 28 -9 58
-17 l55 -14 3 -43 c3 -41 5 -43 63 -72 59 -30 73 -52 48 -77 -8 -8 -5 -13 10
-18 27 -8 27 -31 0 -45 -29 -16 -66 -4 -86 28 -23 36 -32 42 -66 42 -16 0 -59
17 -95 39 -109 63 -159 87 -143 67 8 -9 11 -19 8 -22 -3 -3 -65 19 -137 50
-153 66 -171 70 -185 39 -9 -22 -15 -23 -130 -23 -145 0 -238 -19 -278 -58
-31 -29 -57 -105 -57 -165 l0 -40 41 47 c47 53 63 58 57 16 l-4 -29 37 34 c83
75 129 78 129 9 l0 -34 49 35 c56 40 83 44 103 14 l13 -21 35 20 c19 11 45 23
58 27 19 5 22 3 22 -19 0 -29 8 -30 77 -17 31 6 45 4 56 -6 11 -11 26 -12 81
-3 37 6 72 8 77 4 6 -3 9 -20 7 -36 -4 -26 -2 -29 16 -24 12 3 44 8 71 12 48
5 52 3 95 -35 33 -29 42 -43 32 -49 -7 -5 -61 -14 -120 -21 -115 -13 -201 -44
-224 -80 -11 -18 -23 -21 -92 -21 -67 0 -77 -2 -62 -13 16 -11 11 -19 -49 -78
-66 -65 -67 -66 -34 -61 l34 5 -55 -62 c-86 -99 -111 -134 -108 -156 2 -16 11
-20 41 -20 20 0 37 0 37 0 0 0 -9 -24 -20 -53 -27 -71 -26 -86 4 -78 21 5 24
2 30 -36 9 -54 19 -40 40 57 24 105 31 118 62 111 26 -7 24 -12 45 99 6 33 18
71 26 84 15 23 16 24 29 6 8 -10 14 -28 14 -39 0 -12 11 6 25 38 33 80 41 87
69 55 l22 -26 46 22 c25 12 70 25 100 28 30 4 68 13 84 21 60 30 165 65 158
53 -4 -7 -33 -50 -64 -97 -258 -387 -421 -785 -451 -1098 -10 -110 -6 -375 8
-444 l6 -28 203 0 c112 0 204 4 204 8 0 4 -16 55 -35 113 -80 234 -110 395
-109 584 0 129 3 151 36 275 79 291 148 449 237 540 33 33 67 60 76 60 9 0 31
10 47 22 28 20 31 20 40 4 9 -16 11 -16 27 -1 17 14 20 12 40 -37 12 -29 25
-72 28 -96 6 -41 7 -42 24 -26 18 16 20 15 40 -31 20 -46 21 -78 4 -130 -4
-13 4 -7 23 15 17 19 33 32 36 29 4 -3 9 -36 13 -72 5 -53 2 -71 -11 -93 l-18
-26 30 7 c25 5 31 3 37 -14 3 -12 11 -21 16 -21 14 0 11 -97 -4 -103 -6 -3 -3
-6 9 -6 24 -1 44 17 44 40 0 11 9 19 23 21 19 3 22 10 25 56 2 38 7 52 18 52
12 0 13 8 8 36 -7 36 -6 37 20 30 14 -3 26 -5 26 -3 0 2 -11 31 -25 65 -14 34
-25 64 -25 68 0 3 14 4 30 2 l30 -5 -23 26 c-13 14 -41 50 -61 79 -39 53 -42
82 -9 82 10 0 -13 19 -50 41 -61 37 -68 44 -64 67 4 21 -6 37 -51 84 -47 49
-52 58 -33 58 12 0 45 -12 73 -26 38 -19 59 -24 84 -19 29 5 35 2 49 -24 8
-17 15 -36 15 -44 0 -27 26 -40 50 -25 26 16 31 9 61 -82 26 -77 46 -120 58
-120 4 0 12 10 18 23 10 21 13 18 51 -43 l42 -65 0 42 c0 55 14 90 39 98 20 6
18 10 -24 62 -25 30 -45 61 -45 68 0 15 21 25 53 25 15 0 3 11 -37 32 -54 30
-84 67 -71 88 3 5 -16 16 -42 25 -104 37 -113 42 -113 75 0 31 0 31 -42 26
-94 -13 -241 -26 -244 -23 -2 2 41 25 96 51 90 44 104 48 146 41 46 -7 47 -6
40 19 l-6 26 52 -21 c29 -11 73 -29 97 -40 24 -10 45 -19 47 -19 2 0 -5 15
-16 33 -11 17 -20 35 -20 40 0 16 46 5 123 -28 44 -19 82 -33 85 -30 2 2 -5
20 -16 40 -12 19 -18 35 -14 35 9 -1 91 -19 113 -26 9 -2 -5 17 -32 45 -48 47
-49 50 -43 91 7 42 6 43 -17 37 -68 -19 -139 -30 -146 -24 -4 4 -7 23 -7 41
l0 33 -110 -37 c-61 -21 -119 -41 -130 -45 -18 -8 -18 -7 0 21 9 16 34 47 53
68 42 46 38 44 -94 -44 -87 -58 -105 -66 -136 -62 -36 4 -38 2 -104 -87 -38
-50 -71 -91 -75 -91 -3 0 -14 39 -24 88 -10 48 -28 114 -40 147 -20 56 -24 60
-52 59 -26 -1 -32 4 -48 42 -18 44 -56 79 -56 52 0 -7 -5 -20 -10 -28 -8 -12
-20 -5 -67 42 -48 46 -67 58 -111 67 -30 6 -73 25 -98 41 -24 17 -41 24 -38
17z"/>
<path d="M3496 1938 c-38 -39 -67 -110 -106 -263 -33 -130 -70 -376 -70 -466
0 -35 -6 -83 -13 -106 -11 -39 -14 -41 -25 -23 -18 29 -81 58 -177 80 -188 44
-208 77 -92 155 50 34 100 45 112 25 12 -19 54 -11 70 14 40 60 22 159 -30
172 -54 13 -146 -3 -219 -40 -164 -81 -262 -237 -211 -336 22 -42 56 -56 202
-85 168 -33 177 -40 181 -136 4 -92 -8 -133 -54 -187 -30 -36 -42 -43 -67 -40
-51 5 -69 42 -76 157 -7 112 -16 131 -55 113 -33 -15 -39 -41 -34 -155 3 -84
6 -98 32 -135 36 -52 80 -80 137 -88 37 -5 51 -1 91 24 25 17 65 56 87 86 48
64 110 181 113 211 1 11 4 -38 7 -109 6 -119 8 -129 30 -147 21 -17 26 -18 45
-6 11 8 65 88 118 178 111 187 164 252 204 247 l27 -3 1 -162 1 -162 34 -35
c64 -66 147 -72 195 -15 35 41 33 66 -7 89 -53 31 -57 50 -57 274 0 189 -1
205 -20 229 -26 33 -70 43 -107 23 -41 -21 -83 -68 -171 -191 -84 -117 -119
-148 -149 -129 -46 29 -21 172 94 536 59 188 67 223 67 295 1 68 -2 86 -20
110 -30 39 -49 40 -88 1z"/>
<path d="M1808 1820 c-67 -36 -79 -101 -29 -151 33 -32 58 -36 101 -14 61 32
79 102 38 149 -31 35 -66 40 -110 16z"/>
<path d="M5388 1760 c-67 -36 -79 -101 -29 -151 33 -32 58 -36 101 -14 61 32
79 102 38 149 -31 35 -66 40 -110 16z"/>
<path d="M1799 1511 c-102 -65 -143 -124 -115 -166 11 -16 15 -69 18 -211 3
-167 6 -194 25 -236 41 -91 130 -103 199 -26 37 40 37 60 2 114 l-33 49 0 130
c0 85 6 154 17 200 15 64 23 134 19 178 -2 31 -52 19 -132 -32z"/>
<path d="M1474 1526 c-25 -21 -28 -32 -34 -107 -3 -46 -12 -95 -20 -109 -14
-25 -14 -25 -43 40 -53 120 -83 129 -159 50 -26 -27 -48 -54 -48 -59 0 -5 16
-28 35 -51 37 -44 71 -141 100 -280 20 -99 43 -148 76 -166 38 -19 62 -18 90
5 l23 18 -23 130 c-22 125 -21 156 1 216 12 32 23 33 63 7 40 -26 67 -25 94 4
23 24 23 25 6 73 -9 26 -19 85 -22 131 -5 73 -9 85 -31 102 -33 27 -75 25
-108 -4z"/>
<path d="M2032 1530 c-18 -11 -40 -35 -49 -54 -15 -33 -15 -41 8 -148 22 -105
24 -141 29 -538 5 -389 7 -428 23 -454 35 -53 97 -16 117 70 5 21 10 89 10
149 1 246 57 465 159 622 43 67 78 93 131 100 32 5 40 1 59 -23 30 -38 25 -98
-16 -186 -40 -84 -86 -130 -164 -159 -34 -14 -64 -30 -66 -36 -2 -6 6 -22 18
-34 19 -19 29 -21 81 -15 32 3 71 12 86 20 70 36 177 187 229 324 19 50 26 87
26 147 1 90 -12 126 -63 169 -56 46 -165 30 -242 -36 -16 -12 -65 -74 -110
-137 -46 -63 -88 -116 -94 -118 -8 -3 -13 31 -16 104 -6 119 -34 205 -79 237
-30 21 -37 20 -77 -4z"/>
<path d="M5349 1331 c-102 -65 -143 -124 -115 -166 11 -16 15 -69 18 -211 3
-167 6 -194 25 -236 41 -91 130 -103 199 -26 37 40 37 60 2 114 l-33 49 0 130
c0 85 6 154 17 200 15 64 23 134 19 178 -2 31 -52 19 -132 -32z"/>
<path d="M5044 1336 c-25 -21 -28 -32 -34 -107 -3 -46 -12 -95 -20 -109 -14
-25 -14 -25 -43 40 -53 120 -83 129 -159 50 -26 -27 -48 -54 -48 -59 0 -5 16
-28 35 -51 37 -44 71 -141 100 -280 20 -99 43 -148 76 -166 38 -19 62 -18 90
5 l23 18 -23 130 c-22 125 -21 156 1 216 12 32 23 33 63 7 40 -26 67 -25 94 4
23 24 23 25 6 73 -9 26 -19 85 -22 131 -5 73 -9 85 -31 102 -33 27 -75 25
-108 -4z"/>
<path d="M6122 1349 c-30 -11 -100 -87 -194 -208 -85 -109 -121 -140 -145
-125 -13 8 -15 27 -14 105 1 52 -2 107 -8 122 -13 33 -50 43 -101 28 -47 -14
-124 -70 -128 -94 -2 -10 10 -33 26 -51 38 -44 52 -121 52 -290 0 -130 11
-176 43 -189 28 -10 60 27 165 187 127 196 155 232 194 252 28 14 32 14 46 0
14 -14 15 -28 4 -124 -20 -180 -18 -196 28 -246 22 -23 58 -51 79 -61 35 -15
45 -16 71 -5 40 16 70 55 70 90 0 21 -12 37 -45 64 -44 36 -45 39 -45 95 0 32
8 114 19 182 23 154 17 221 -23 256 -29 24 -56 28 -94 12z"/>
<path d="M4250 1333 c-98 -35 -219 -191 -255 -330 -41 -155 14 -288 142 -345
86 -38 148 -14 270 105 l83 80 16 -39 c54 -132 69 -150 136 -160 27 -5 40 -1
66 21 18 15 32 34 32 42 0 9 -14 44 -32 80 -30 61 -31 70 -36 214 -6 176 -12
190 -92 209 -33 8 -51 18 -55 31 -9 29 -54 78 -86 94 -36 19 -131 18 -189 -2z
m188 -159 c29 -20 55 -47 58 -60 12 -47 -33 -139 -109 -221 -75 -82 -145 -97
-191 -42 -23 27 -26 40 -26 103 0 90 30 157 97 216 60 53 98 54 171 4z"/>
<path d="M6629 1335 c-52 -19 -107 -55 -169 -113 -124 -113 -176 -271 -136
-406 34 -111 104 -166 212 -166 107 1 200 61 287 186 28 41 54 74 58 74 27 0
18 -267 -11 -335 -10 -22 -41 -80 -69 -129 -111 -190 -123 -336 -28 -336 84 0
144 87 212 305 42 135 75 206 133 283 46 62 67 105 58 127 -8 23 -40 18 -66
-10 -35 -37 -48 -31 -55 23 -30 211 -43 271 -68 314 -42 71 -125 100 -167 58
-24 -24 -26 -79 -4 -121 12 -25 13 -40 5 -80 -6 -28 -18 -63 -26 -78 -21 -42
-93 -100 -139 -112 -49 -13 -74 -3 -111 46 -40 51 -44 115 -14 207 32 100 85
153 189 189 83 29 106 52 76 75 -25 18 -118 17 -167 -1z"/>
</g>
</svg>
